<svg xmlns="http://www.w3.org/2000/svg" width="135.5" height="121.016" viewBox="0 0 135.5 121.016">
  <g id="Group_175" data-name="Group 175" transform="translate(-133 -641)">
    <path id="Path_939" data-name="Path 939" d="M58.5,0C91.982-54.574,117,22.833,117,51s-26.191,51-58.5,51S0,79.167,0,51,25.018,54.574,58.5,0Z" transform="translate(151.5 660.016)" fill="#c7d3eb" opacity="0.998"/>
    <g id="Group_59" data-name="Group 59" transform="translate(-105.981 576.159)">
      <g id="Group_42" data-name="Group 42" transform="translate(341.042 109.75)">
        <path id="Path_935" data-name="Path 935" d="M0,0,3.62-.049,3.591,2.113l-3.62.049Z" transform="translate(2.595 8.237) rotate(-135.001)" fill="#2c3d63"/>
        <path id="Path_936" data-name="Path 936" d="M1.9-.026,5.373-.073A1.837,1.837,0,0,1,7.246,1.8l-.009.689A1.962,1.962,0,0,1,5.312,4.412L1.837,4.46A1.837,1.837,0,0,1-.035,2.588l.009-.69A1.962,1.962,0,0,1,1.9-.026Z" transform="translate(5.249 8.2) rotate(-135)" fill="#2c3d63"/>
      </g>
      <g id="Group_43" data-name="Group 43" transform="translate(312.493 98.117)">
        <rect id="Rectangle_26" data-name="Rectangle 26" width="6.98" height="2.328" transform="translate(10.512 9.548) rotate(180)" fill="#2c3d63"/>
        <rect id="Rectangle_27" data-name="Rectangle 27" width="14.044" height="7.165" rx="2.809" transform="translate(14.044 7.165) rotate(180)" fill="#2c3d63"/>
      </g>
      <g id="Group_58" data-name="Group 58" transform="translate(277.511 98.125)">
        <path id="Path_937" data-name="Path 937" d="M32.619.2C50.633.315,65.328,14.662,65.44,32.247S51.039,64,33.024,63.886.315,49.427.2,31.841,14.6.091,32.619.2Z" transform="matrix(0.971, -0.238, 0.238, 0.971, 2.46, 17.541)" fill="#2c3d63"/>
        <path id="Path_938" data-name="Path 938" d="M29.279.4A30.259,30.259,0,0,1,58.957,30.076,28.336,28.336,0,0,1,30.076,58.957,30.259,30.259,0,0,1,.4,29.279,28.336,28.336,0,0,1,29.279.4Z" transform="translate(0 40.844) rotate(-45)" fill="#fff"/>
        <path id="Path_61" data-name="Path 61" d="M336.028,121.093a30.437,30.437,0,0,0-6.587-.713c-16.393,0-29.68,12.931-29.68,28.884s13.287,28.884,29.68,28.884a30.437,30.437,0,0,0,6.587-.714,28.728,28.728,0,0,1,0-56.34Z" transform="translate(-287.468 -108.419)" fill="#6c7aff" opacity="0.09"/>
        <path id="Path_62" data-name="Path 62" d="M352.7,156.046a.957.957,0,0,0,.97-.944V133.954a.97.97,0,0,0-1.94,0V155.1A.957.957,0,0,0,352.7,156.046Z" transform="translate(-310.725 -114.259)" fill="#2b468b"/>
        <path id="Path_63" data-name="Path 63" d="M361.047,188.191a.985.985,0,0,0,.487-.128.93.93,0,0,0,.35-1.29l-8.352-13.956a.985.985,0,0,0-1.326-.34.929.929,0,0,0-.35,1.29l8.351,13.956A.975.975,0,0,0,361.047,188.191Z" transform="translate(-310.725 -132.447)" fill="#2b468b"/>
        <path id="Path_64" data-name="Path 64" d="M348.654,171.871a2.668,2.668,0,1,0,2.667-2.6A2.632,2.632,0,0,0,348.654,171.871Z" transform="translate(-309.35 -131.027)" fill="#769af0"/>
        <g id="Group_57" data-name="Group 57" transform="translate(13.655 13.288)">
          <g id="Group_44" data-name="Group 44" transform="translate(27.831)">
            <path id="Path_65" data-name="Path 65" d="M353.088,126.667a.479.479,0,0,0,.485-.472v-2.874a.485.485,0,0,0-.97,0V126.2A.479.479,0,0,0,353.088,126.667Z" transform="translate(-352.603 -122.849)" fill="#2b468b"/>
          </g>
          <g id="Group_45" data-name="Group 45" transform="translate(40.269 3.628)">
            <path id="Path_66" data-name="Path 66" d="M375.6,133.031a.489.489,0,0,0,.42-.236l1.477-2.489a.465.465,0,0,0-.177-.645.491.491,0,0,0-.662.173l-1.477,2.489a.465.465,0,0,0,.177.645A.491.491,0,0,0,375.6,133.031Z" transform="translate(-375.118 -129.597)" fill="#2b468b"/>
          </g>
          <g id="Group_46" data-name="Group 46" transform="translate(49.374 13.542)">
            <path id="Path_67" data-name="Path 67" d="M392.085,150.418a.5.5,0,0,0,.243-.063l2.558-1.437a.465.465,0,0,0,.177-.645.492.492,0,0,0-.662-.173l-2.558,1.437a.465.465,0,0,0-.178.645A.488.488,0,0,0,392.085,150.418Z" transform="translate(-391.6 -148.037)" fill="#2b468b"/>
          </g>
          <g id="Group_47" data-name="Group 47" transform="translate(52.708 27.084)">
            <path id="Path_68" data-name="Path 68" d="M398.117,174.169h2.954a.472.472,0,1,0,0-.944h-2.954a.472.472,0,1,0,0,.944Z" transform="translate(-397.633 -173.225)" fill="#2b468b"/>
          </g>
          <g id="Group_48" data-name="Group 48" transform="translate(49.374 39.188)">
            <path id="Path_69" data-name="Path 69" d="M394.642,198.121a.488.488,0,0,0,.42-.236.465.465,0,0,0-.177-.645l-2.558-1.438a.493.493,0,0,0-.663.173.466.466,0,0,0,.178.645l2.558,1.437A.491.491,0,0,0,394.642,198.121Z" transform="translate(-391.6 -195.739)" fill="#2b468b"/>
          </g>
          <g id="Group_49" data-name="Group 49" transform="translate(40.269 48.049)">
            <path id="Path_70" data-name="Path 70" d="M377.08,215.655a.491.491,0,0,0,.242-.063.465.465,0,0,0,.177-.645l-1.477-2.489a.491.491,0,0,0-.662-.173.465.465,0,0,0-.177.645l1.477,2.489A.486.486,0,0,0,377.08,215.655Z" transform="translate(-375.118 -212.222)" fill="#2b468b"/>
          </g>
          <g id="Group_50" data-name="Group 50" transform="translate(27.831 51.292)">
            <path id="Path_71" data-name="Path 71" d="M353.088,222.073a.479.479,0,0,0,.485-.472v-2.875a.485.485,0,0,0-.97,0V221.6A.479.479,0,0,0,353.088,222.073Z" transform="translate(-352.603 -218.254)" fill="#2b468b"/>
          </g>
          <g id="Group_51" data-name="Group 51" transform="translate(13.915 48.049)">
            <path id="Path_72" data-name="Path 72" d="M327.9,215.655a.486.486,0,0,0,.42-.236l1.477-2.489a.465.465,0,0,0-.177-.645.491.491,0,0,0-.662.173l-1.477,2.489a.465.465,0,0,0,.177.645A.492.492,0,0,0,327.9,215.655Z" transform="translate(-327.415 -212.221)" fill="#2b468b"/>
          </g>
          <g id="Group_52" data-name="Group 52" transform="translate(3.728 39.188)">
            <path id="Path_73" data-name="Path 73" d="M309.461,198.121a.493.493,0,0,0,.243-.063l2.558-1.437a.466.466,0,0,0,.177-.645.493.493,0,0,0-.662-.173l-2.558,1.438a.465.465,0,0,0-.177.645A.486.486,0,0,0,309.461,198.121Z" transform="translate(-308.976 -195.74)" fill="#2b468b"/>
          </g>
          <g id="Group_53" data-name="Group 53" transform="translate(0 27.084)">
            <path id="Path_74" data-name="Path 74" d="M302.712,174.169h2.953a.472.472,0,1,0,0-.944h-2.953a.472.472,0,1,0,0,.944Z" transform="translate(-302.227 -173.225)" fill="#2b468b"/>
          </g>
          <g id="Group_54" data-name="Group 54" transform="translate(3.728 13.542)">
            <path id="Path_75" data-name="Path 75" d="M312.019,150.418a.487.487,0,0,0,.42-.236.465.465,0,0,0-.177-.645L309.7,148.1a.492.492,0,0,0-.662.173.465.465,0,0,0,.177.645l2.558,1.437A.492.492,0,0,0,312.019,150.418Z" transform="translate(-308.976 -148.037)" fill="#2b468b"/>
          </g>
          <g id="Group_56" data-name="Group 56" transform="translate(13.915 3.629)">
            <g id="Group_55" data-name="Group 55">
              <path id="Path_76" data-name="Path 76" d="M329.377,133.031a.492.492,0,0,0,.242-.063.465.465,0,0,0,.177-.645l-1.477-2.489a.492.492,0,0,0-.662-.173.465.465,0,0,0-.177.645l1.477,2.489A.487.487,0,0,0,329.377,133.031Z" transform="translate(-327.415 -129.598)" fill="#2b468b"/>
            </g>
          </g>
        </g>
      </g>
    </g>
    <g id="Ellipse_6" data-name="Ellipse 6" transform="translate(133 684)" fill="#c7d3eb" stroke="#c7d3eb" stroke-width="1">
      <circle cx="4" cy="4" r="4" stroke="none"/>
      <circle cx="4" cy="4" r="3.5" fill="none"/>
    </g>
    <g id="Ellipse_7" data-name="Ellipse 7" transform="translate(148 666)" fill="#c7d3eb" stroke="#c7d3eb" stroke-width="1">
      <circle cx="4" cy="4" r="4" stroke="none"/>
      <circle cx="4" cy="4" r="3.5" fill="none"/>
    </g>
    <g id="Ellipse_8" data-name="Ellipse 8" transform="translate(169 657)" fill="#c7d3eb" stroke="#c7d3eb" stroke-width="1">
      <circle cx="6" cy="6" r="6" stroke="none"/>
      <circle cx="6" cy="6" r="5.5" fill="none"/>
    </g>
    <g id="Ellipse_9" data-name="Ellipse 9" transform="translate(186 641)" fill="#c7d3eb" stroke="#c7d3eb" stroke-width="1">
      <circle cx="2" cy="2" r="2" stroke="none"/>
      <circle cx="2" cy="2" r="1.5" fill="none"/>
    </g>
  </g>
</svg>
